<?xml version="1.0" encoding="UTF-8" standalone="no"?>
<!DOCTYPE svg PUBLIC "-//W3C//DTD SVG 1.1//EN" "http://www.w3.org/Graphics/SVG/1.1/DTD/svg11.dtd">
<svg version="1.1" xmlns="http://www.w3.org/2000/svg" xmlns:xlink="http://www.w3.org/1999/xlink" preserveAspectRatio="xMidYMid meet" viewBox="0 0 640 640" width="640" height="640"><defs><path d="M43 265.31L640 265.31L640 286.81L43 286.81L43 265.31Z" id="fKcofroxj"></path><path d="M43 265.31L129 265.31L129 286.81L43 286.81L43 265.31Z" id="a5an4WVRR"></path><path d="M43 308.31L640 308.31L640 329.81L43 329.81L43 308.31Z" id="fDA4OTC61"></path><path d="M56.29 293.62L86 298.16L64.5 320.19L69.57 351.31L43 336.61L16.42 351.31L21.5 320.19L0 298.16L29.71 293.62L43 265.31L56.29 293.62Z" id="g1nnzARe7Y"></path><path d="M300.99 308.31L386.99 308.31L386.99 329.81L300.99 329.81L300.99 308.31Z" id="b18J5VSFX"></path><path d="M386.99 265.31L472.98 265.31L472.98 286.81L386.99 286.81L386.99 265.31Z" id="brQzSXLoF"></path><path d="M129 308.31L214.99 308.31L214.99 329.81L129 329.81L129 308.31Z" id="ba9dGVqVtC"></path><path d="M214.99 265.31L300.99 265.31L300.99 286.81L214.99 286.81L214.99 265.31Z" id="a1n6Klt6ZV"></path><path d="M472.98 308.31L558.98 308.31L558.98 329.81L472.98 329.81L472.98 308.31Z" id="b2iOm0cQai"></path><path d="M558.98 265.31L640 265.31L640 286.81L558.98 286.81L558.98 265.31Z" id="d2u8OVmYQV"></path></defs><g><g><use xlink:href="#fKcofroxj" opacity="1" fill="#dbc782" fill-opacity="1"></use></g><g><use xlink:href="#a5an4WVRR" opacity="1" fill="#000000" fill-opacity="1"></use></g><g><use xlink:href="#fDA4OTC61" opacity="1" fill="#dbc782" fill-opacity="1"></use></g><g><use xlink:href="#g1nnzARe7Y" opacity="1" fill="#c201e1" fill-opacity="1"></use><g><use xlink:href="#g1nnzARe7Y" opacity="1" fill-opacity="0" stroke="#c243cb" stroke-width="0" stroke-opacity="1"></use></g></g><g><use xlink:href="#b18J5VSFX" opacity="1" fill="#000000" fill-opacity="1"></use></g><g><use xlink:href="#brQzSXLoF" opacity="1" fill="#000000" fill-opacity="1"></use></g><g><use xlink:href="#ba9dGVqVtC" opacity="1" fill="#000000" fill-opacity="1"></use></g><g><use xlink:href="#a1n6Klt6ZV" opacity="1" fill="#000000" fill-opacity="1"></use></g><g><use xlink:href="#b2iOm0cQai" opacity="1" fill="#000000" fill-opacity="1"></use></g><g><use xlink:href="#d2u8OVmYQV" opacity="1" fill="#000000" fill-opacity="1"></use></g></g></svg>